<svg xmlns="http://www.w3.org/2000/svg" width="460" height="100"><text transform="translate(-313.926 -38.49)"><tspan x="0" y="0" fill="#2B3137" font-family="'Helvetica-Bold'" font-size="31.802">C</tspan><tspan x="23.597" y="0" fill="#2B3137" font-family="'Helvetica-Bold'" font-size="31.802">O</tspan><tspan x="47.703" y="0" fill="#2B3137" font-family="'Helvetica-Bold'" font-size="31.802">F</tspan><tspan x="67.133" y="0" fill="#2B3137" font-family="'Helvetica-Bold'" font-size="31.802">F</tspan><tspan x="85.928" y="0" fill="#2B3137" font-family="'Helvetica-Bold'" font-size="31.802">EE</tspan><tspan x="128.352" y="0" fill="#2B3137" font-family="'Helvetica-Bold'" font-size="31.802" letter-spacing="1"> </tspan><tspan x="138.464" y="0" fill="#2B3137" font-family="'Helvetica-Bold'" font-size="31.802">S</tspan><tspan x="159.04" y="0" fill="#2B3137" font-family="'Helvetica-Bold'" font-size="31.802" letter-spacing="-2">T</tspan><tspan x="175.927" y="0" fill="#2B3137" font-family="'Helvetica-Bold'" font-size="31.802">A</tspan><tspan x="198.888" y="0" fill="#2B3137" font-family="'Helvetica-Bold'" font-size="31.802">N</tspan><tspan x="221.212" y="0" fill="#2B3137" font-family="'Helvetica-Bold'" font-size="31.802">D</tspan></text><path fill="#231815" d="M0 170h870v100H0z"/><path fill="#FFF" d="M65.358 36.224c-1.334-4.778-3.89-13.78-17.668-13.78-7.998 0-19.776 5.334-19.776 27.891 0 14.334 5.664 27.223 19.776 27.223 9.222 0 15.665-5.223 17.668-15.001h16.668C78.688 79.891 67.358 92 47.355 92c-21.221 0-36.44-14.332-36.44-41.889C10.915 22.223 27.024 8 47.58 8c23.89 0 33.554 16.444 34.446 28.224H65.358zM131.693 8c10.559 0 38.336 4.556 38.336 42s-27.777 42-38.336 42c-10.551 0-38.331-4.556-38.331-42s27.78-42 38.331-42zm0 69.889c9.004 0 21.672-5.555 21.672-27.889s-12.668-27.889-21.672-27.889c-8.998 0-21.666 5.555-21.666 27.889s12.668 27.889 21.666 27.889zm66.12 12.002h-16.668V10.109h56.781v14.113h-40.113V42.22h35.113v14.111h-35.113v33.56zm67.896 0h-16.664V10.109h56.775v14.113h-40.111V42.22h35.113v14.111h-35.113v33.56zm107.674-65.668h-42.336V41h38.891v14.113h-38.891v20.664h44.225V89.89h-60.557V10.109h58.668v14.114zm74.117 0h-42.334V41h38.889v14.113h-38.889v20.664h44.219V89.89H388.83V10.109h58.67v14.114z"/></svg>